<?xml version="1.0" standalone="no"?>
<!DOCTYPE svg PUBLIC "-//W3C//DTD SVG 20010904//EN"
 "http://www.w3.org/TR/2001/REC-SVG-20010904/DTD/svg10.dtd">
<svg version="1.0" xmlns="http://www.w3.org/2000/svg"
 width="512.000000pt" height="512.000000pt" viewBox="0 0 512.000000 512.000000"
 preserveAspectRatio="xMidYMid meet">
<metadata>
Created by potrace 1.11, written by Peter Selinger 2001-2013
</metadata>
<g transform="translate(0.000000,512.000000) scale(0.100000,-0.100000)"
fill="#000000" stroke="none">
<path d="M2350 4999 c-113 -66 -211 -124 -219 -128 -12 -7 41 -41 249 -158 19
-11 143 -83 275 -160 132 -77 249 -145 260 -151 11 -6 118 -68 238 -137 120
-69 239 -137 264 -152 26 -14 70 -39 97 -56 28 -16 69 -40 91 -52 33 -19 351
-203 520 -301 22 -13 49 -28 60 -33 11 -6 49 -27 84 -48 l65 -38 0 -1278 c0
-702 2 -1277 5 -1277 3 0 26 12 51 26 25 15 63 37 85 49 22 13 99 57 170 98
l130 76 1 1280 1 1281 -36 21 c-20 12 -56 33 -81 47 -25 14 -110 63 -190 110
-80 46 -179 103 -220 127 -202 116 -929 536 -1035 598 -66 38 -140 81 -165 95
-25 14 -145 83 -267 154 -122 70 -223 128 -225 127 -2 0 -95 -54 -208 -120z"/>
<path d="M343 2560 l0 -1280 566 -326 c553 -320 912 -527 1356 -784 121 -70
237 -137 258 -149 l37 -21 0 254 0 255 -29 20 c-16 12 -32 21 -35 21 -3 0 -38
20 -78 44 -40 24 -323 187 -628 363 -305 177 -600 347 -655 378 -55 32 -154
89 -220 127 -66 38 -122 72 -124 74 -3 2 -5 464 -5 1027 l-1 1022 -165 95
c-91 53 -190 110 -221 128 l-56 32 0 -1280z"/>
<path d="M1215 2555 c0 -716 2 -816 15 -819 8 -3 179 -3 380 -2 340 2 371 4
457 25 51 12 95 27 99 32 3 5 11 9 19 9 22 0 98 55 138 99 43 48 80 118 96
184 16 67 15 193 -3 252 -34 112 -128 206 -236 238 -10 2 -1 11 25 25 116 59
183 171 189 312 9 230 -123 384 -379 440 -75 16 -134 18 -443 20 l-357 1 0
-816z m715 525 c91 -33 136 -109 125 -213 -13 -136 -89 -178 -325 -181 -80 -1
-152 0 -161 2 -15 3 -16 26 -14 205 1 111 3 203 4 204 5 9 343 -7 371 -17z
m45 -654 c77 -33 113 -91 118 -191 5 -72 -17 -129 -66 -170 -58 -50 -99 -58
-297 -59 l-175 -1 -2 210 c-1 116 0 215 2 221 2 8 60 11 192 10 154 -2 195 -5
228 -20z"/>
<path d="M2689 3358 c0 -7 -1 -376 -2 -819 l-2 -807 385 3 c429 3 472 8 595
69 84 42 154 108 190 181 28 58 32 72 44 151 27 185 -49 349 -193 413 -22 10
-48 21 -56 24 -11 3 -8 7 10 15 86 35 168 134 194 234 27 106 5 248 -52 339
-57 89 -177 163 -299 185 -15 3 -46 9 -68 14 -22 5 -199 9 -392 10 -279 0
-353 -2 -354 -12z m731 -285 c25 -11 53 -29 62 -40 44 -49 60 -143 37 -214
-21 -63 -82 -111 -159 -126 -28 -6 -309 -11 -325 -6 -7 2 -10 76 -9 206 1 111
2 203 3 204 0 1 79 1 174 -1 146 -3 179 -6 217 -23z m-3 -637 c51 -10 109 -56
128 -102 20 -48 26 -131 14 -177 -11 -42 -59 -102 -98 -121 -45 -23 -101 -29
-268 -30 -105 -1 -163 2 -164 9 -3 26 -5 411 -2 421 4 12 324 12 390 0z"/>
</g>
</svg>
